<?xml version="1.0" encoding="utf-8"?>
<svg version="1.1" id="Layer_1" xmlns="http://www.w3.org/2000/svg" xmlns:xlink="http://www.w3.org/1999/xlink" x="0px" y="0px"
	 viewBox="0 0 72 72" enable-background="new 0 0 72 72" xml:space="preserve">
	<polygon fill="#EF4136" points="0,0 0,72 72,72 72,59.8 68.4,57.7 65,55.7 65,65 7,65 7,7 65,7 65,16.3 68.4,14.3 72,12.2 72,0 "/>
	<path fill="#FFFFFF" d="M36,15.9c-11.1,0-20.1,9-20.1,20.1c0,11.1,9,20.1,20.1,20.1c6.5,0,12.3-3.1,16-7.9l-6.1-3.5
		c-2.4,2.7-5.9,4.5-9.9,4.5c-7.3,0-13.2-5.9-13.2-13.2c0-7.3,5.9-13.1,13.2-13.1c3.9,0,7.5,1.7,9.9,4.5l6.1-3.5
		C48.3,19,42.5,15.9,36,15.9"/>
	<polygon fill="#FFFFFF" points="44.8,36 71.9,51.7 71.9,20.4 "/>
</svg>
