<?xml version="1.0" encoding="utf-8"?>
<!-- Generator: Adobe Illustrator 18.1.1, SVG Export Plug-In . SVG Version: 6.00 Build 0)  -->
<svg version="1.1" id="Layer_1" xmlns="http://www.w3.org/2000/svg" xmlns:xlink="http://www.w3.org/1999/xlink" x="0px" y="0px"
	 viewBox="0 0 436 72" enable-background="new 0 0 436 72" xml:space="preserve">
<g>
	<polygon fill="#EF4136" points="0.6,0 0.6,72 72.6,72 72.6,59.8 69.1,57.7 65.6,55.7 65.6,65 7.6,65 7.6,7 65.6,7 65.6,16.3 
		69.1,14.3 72.6,12.2 72.6,0 	"/>
	<path fill="#FFFFFF" d="M36.6,15.9c-11.1,0-20.1,9-20.1,20.1c0,11.1,9,20.1,20.1,20.1c6.5,0,12.3-3.1,16-7.9l-6.1-3.5
		c-2.4,2.7-5.9,4.5-9.9,4.5c-7.3,0-13.2-5.9-13.2-13.2c0-7.3,5.9-13.1,13.2-13.1c3.9,0,7.5,1.7,9.9,4.5l6.1-3.5
		C48.9,19,43.1,15.9,36.6,15.9"/>
	<polygon fill="#FFFFFF" points="45.4,36 72.5,51.7 72.5,20.4 	"/>
	<path fill="#EF4136" d="M89.9,36.1L89.9,36.1c0-5.2,3.9-9.4,9.4-9.4c3.4,0,5.5,1.1,7.1,2.8l-2.5,2.9c-1.4-1.3-2.8-2-4.6-2
		c-3,0-5.2,2.5-5.2,5.6V36c0,3.1,2.1,5.7,5.2,5.7c2.1,0,3.3-0.8,4.8-2.1l2.5,2.6c-1.9,2-3.9,3.2-7.4,3.2
		C93.9,45.4,89.9,41.2,89.9,36.1"/>
	<polygon fill="#EF4136" points="110.4,27 124.1,27 124.1,30.5 114.4,30.5 114.4,34.2 122.9,34.2 122.9,37.7 114.4,37.7 114.4,41.5 
		124.2,41.5 124.2,45 110.4,45 	"/>
	<polygon fill="#EF4136" points="128.4,27 132.1,27 140.5,38.1 140.5,27 144.5,27 144.5,45 141.1,45 132.3,33.5 132.3,45 128.4,45 	
		"/>
	<polygon fill="#EF4136" points="153.7,30.6 148.2,30.6 148.2,27 163.2,27 163.2,30.6 157.6,30.6 157.6,45 153.7,45 	"/>
	<path fill="#EF4136" d="M166.8,27h8.3c2.3,0,4.1,0.6,5.3,1.8c1,1,1.6,2.4,1.6,4.1V33c0,2.9-1.6,4.8-3.9,5.6l4.4,6.5h-4.7l-3.9-5.8
		h-0.1h-3.1V45h-4V27z M174.9,35.7c1.9,0,3.1-1,3.1-2.6v-0.1c0-1.7-1.2-2.6-3.1-2.6h-4v5.2H174.9z"/>
	<polygon fill="#EF4136" points="186.2,27 199.8,27 199.8,30.5 190.1,30.5 190.1,34.2 198.7,34.2 198.7,37.7 190.1,37.7 190.1,41.5 
		200,41.5 200,45 186.2,45 	"/>
	<path fill="#EF4136" d="M205.3,27h7.4c4.3,0,6.9,2.6,6.9,6.3v0.1c0,4.2-3.3,6.4-7.3,6.4h-3V45h-4V27z M212.4,36.1
		c2,0,3.2-1.2,3.2-2.7v-0.1c0-1.8-1.2-2.7-3.2-2.7h-3.1v5.5H212.4z"/>
	<path fill="#EF4136" d="M222.4,36.1L222.4,36.1c0-5.2,4.1-9.4,9.6-9.4c5.6,0,9.6,4.2,9.6,9.3V36c0,5.1-4.1,9.4-9.6,9.4
		C226.4,45.4,222.4,41.2,222.4,36.1 M237.5,36.1L237.5,36.1c0-3.2-2.3-5.7-5.5-5.7c-3.2,0-5.4,2.5-5.4,5.6V36c0,3.1,2.3,5.7,5.5,5.7
		C235.2,41.7,237.5,39.2,237.5,36.1"/>
	<rect x="246" y="27" fill="#EF4136" width="4" height="18.1"/>
	<polygon fill="#EF4136" points="255.1,27 258.8,27 267.3,38.1 267.3,27 271.2,27 271.2,45 267.8,45 259.1,33.5 259.1,45 255.1,45 	
		"/>
	<polygon fill="#EF4136" points="280.4,30.6 274.9,30.6 274.9,27 289.9,27 289.9,30.6 284.4,30.6 284.4,45 280.4,45 	"/>
	<polygon fill="#EF4136" points="293.6,27 307.3,27 307.3,30.5 297.6,30.5 297.6,34.2 306.1,34.2 306.1,37.7 297.6,37.7 297.6,41.5 
		307.4,41.5 307.4,45 293.6,45 	"/>
	<path fill="#FFFFFF" d="M318,36.1L318,36.1c0-5.2,3.9-9.4,9.4-9.4c3.4,0,5.5,1.1,7.1,2.8l-2.5,2.9c-1.4-1.3-2.8-2-4.6-2
		c-3,0-5.2,2.5-5.2,5.6V36c0,3.1,2.1,5.7,5.2,5.7c2.1,0,3.3-0.8,4.8-2.1l2.5,2.6c-1.9,2-3.9,3.2-7.4,3.2C322,45.4,318,41.2,318,36.1
		"/>
	<polygon fill="#FFFFFF" points="338.6,27 342.5,27 342.5,34.1 349.9,34.1 349.9,27 353.9,27 353.9,45 349.9,45 349.9,37.8 
		342.5,37.8 342.5,45 338.6,45 	"/>
	<path fill="#FFFFFF" d="M358.6,37.3V27h4v10.2c0,2.9,1.5,4.5,3.9,4.5c2.4,0,3.9-1.5,3.9-4.3V27h4v10.2c0,5.5-3.1,8.2-7.9,8.2
		C361.5,45.3,358.6,42.6,358.6,37.3"/>
	<path fill="#FFFFFF" d="M379,27h8.3c2.3,0,4.1,0.6,5.3,1.8c1,1,1.6,2.4,1.6,4.1V33c0,2.9-1.6,4.8-3.9,5.6l4.4,6.5H390l-3.9-5.8
		h-0.1H383V45h-4V27z M387,35.7c1.9,0,3.1-1,3.1-2.6v-0.1c0-1.7-1.2-2.6-3.1-2.6h-4v5.2H387z"/>
	<path fill="#FFFFFF" d="M397.6,36.1L397.6,36.1c0-5.2,3.9-9.4,9.4-9.4c3.4,0,5.5,1.1,7.1,2.8l-2.5,2.9c-1.4-1.3-2.8-2-4.6-2
		c-3,0-5.2,2.5-5.2,5.6V36c0,3.1,2.1,5.7,5.2,5.7c2.1,0,3.3-0.8,4.8-2.1l2.5,2.6c-1.9,2-3.9,3.2-7.4,3.2
		C401.5,45.4,397.6,41.2,397.6,36.1"/>
	<polygon fill="#FFFFFF" points="418.1,27 422.1,27 422.1,34.1 429.4,34.1 429.4,27 433.4,27 433.4,45 429.4,45 429.4,37.8 
		422.1,37.8 422.1,45 418.1,45 	"/>
	<rect x="311.6" y="41.3" fill="#FFFFFF" width="3.9" height="3.9"/>
</g>
</svg>
